<?xml version="1.0" encoding="UTF-8"?>
<svg width="23px" height="23px" viewBox="0 0 23 23" version="1.1" xmlns="http://www.w3.org/2000/svg" xmlns:xlink="http://www.w3.org/1999/xlink">
    <!-- Generator: Sketch 55.1 (78136) - https://sketchapp.com -->
    <title>Shape</title>
    <desc>Created with Sketch.</desc>
    <g id="Symbols" stroke="none" stroke-width="1" fill="none" fill-rule="evenodd" opacity="0.403506324">
        <g id="Search-input" transform="translate(-24.000000, -17.000000)" fill="#1D1313" fill-rule="nonzero">
            <g id="iconmonstr-magnifier-4" transform="translate(24.000000, 17.000000)">
                <path d="M22.3197858,19.2218085 L17.5131754,14.4522931 C18.4451382,12.9956598 18.9840349,11.2687828 18.9840349,9.4202003 C18.9840349,4.22615293 14.7259787,0 9.49153456,0 C4.25709039,0 0,4.22615293 0,9.4202003 C0,14.6142477 4.25709039,18.8404006 9.49250032,18.8404006 C11.2637126,18.8404006 12.9228962,18.3564534 14.3425702,17.515056 L19.1916743,22.3267372 C21.2622736,24.3784817 24.3913509,21.276428 22.3197858,19.2218085 Z M3,9.5 C3,5.91647007 5.91647007,3 9.5,3 C13.0835299,3 16,5.91551165 16,9.5 C16,13.0844884 13.0835299,16 9.5,16 C5.91647007,16 3,13.0835299 3,9.5 L3,9.5 Z M5,7.23592553 C6.99959686,2.54436547 13.7321105,3.08809269 15,8 C12.4460794,4.96614489 7.9520258,4.63970453 5,7.23592553 Z" id="Shape"></path>
            </g>
        </g>
    </g>
</svg>