<?xml version="1.0" encoding="UTF-8"?>
<svg width="50px" height="40px" viewBox="0 0 50 40" version="1.1" xmlns="http://www.w3.org/2000/svg" xmlns:xlink="http://www.w3.org/1999/xlink">
    <!-- Generator: Sketch 55.1 (78136) - https://sketchapp.com -->
    <title>boy</title>
    <desc>Created with Sketch.</desc>
    <g id="boy" stroke="none" stroke-width="1" fill="none" fill-rule="evenodd">
        <g id="iconmonstr-generation-3" transform="translate(6.000000, 0.000000)" fill="#73BBC9" fill-rule="nonzero">
            <path d="M28.1875,19.6458333 C28.1875,21.0603333 27.2308333,22.2083333 26.0520833,22.2083333 C24.8733333,22.2083333 23.9166667,21.0603333 23.9166667,19.6458333 C23.9166667,18.2313333 24.8733333,17.0833333 26.0520833,17.0833333 C27.2308333,17.0833333 28.1875,18.2313333 28.1875,19.6458333 Z M14.9479167,17.0833333 C13.7691667,17.0833333 12.8125,18.2313333 12.8125,19.6458333 C12.8125,21.0603333 13.7691667,22.2083333 14.9479167,22.2083333 C16.1266667,22.2083333 17.0833333,21.0603333 17.0833333,19.6458333 C17.0833333,18.2313333 16.1266667,17.0833333 14.9479167,17.0833333 Z M20.5,31.35475 C24.318125,31.35475 25.625,27.3333333 25.625,27.3333333 L15.375,27.3333333 C15.375,27.3333333 16.8219583,31.35475 20.5,31.35475 Z M41,21.4412917 C41,24.7298333 39.4693333,29.535375 35.3334583,30.304125 C31.9868333,36.269625 27.0019167,39.2916667 20.5,39.2916667 C13.9997917,39.2916667 9.01316667,36.269625 5.66654167,30.3058333 C1.532375,29.535375 0,24.7315417 0,21.4412917 C0,17.7871667 1.3735,14.4490833 4.85679167,14.227 C5.63066667,5.51620833 11.597875,-3.55271368e-15 20.5,-3.55271368e-15 C29.402125,-3.55271368e-15 35.3693333,5.51620833 36.1432083,14.2287083 C39.621375,14.4490833 41,17.7700833 41,21.4412917 Z M37.5833333,21.4412917 C37.5833333,19.5894583 37.192125,18.270625 36.505375,17.82475 C36.0407083,17.522375 35.45475,17.6470833 35.213875,17.7547083 C34.0897917,18.25525 32.8119583,17.430125 32.8119583,16.1932917 C32.8119583,14.9035 32.641125,12.356375 31.5426667,9.87245833 C29.5627083,6.18929167 26.952375,12.1069583 20.5,12.1069583 C14.047625,12.1069583 11.4372917,6.18929167 9.45733333,9.87416667 C8.358875,12.356375 8.18804167,14.9035 8.18804167,16.195 C8.18804167,17.4232917 6.91704167,18.260375 5.786125,17.7564167 C5.54183333,17.6487917 4.961,17.5240833 4.494625,17.8264583 C2.61204167,19.0513333 3.131375,26.9250417 6.77695833,26.9950833 C7.405625,27.0070417 7.97791667,27.3640833 8.26491667,27.9227083 C12.3478333,35.875 18.4841667,35.875 20.5,35.875 C22.5175417,35.875 28.6504583,35.875 32.7350833,27.9227083 C33.0220833,27.362375 33.594375,27.0070417 34.2213333,26.9950833 C37.386875,26.9335833 37.5833333,21.4959583 37.5833333,21.4412917 L37.5833333,21.4412917 Z" id="Shape"></path>
        </g>
    </g>
</svg>