<?xml version="1.0" encoding="UTF-8"?>
<svg width="50px" height="40px" viewBox="0 0 50 40" version="1.1" xmlns="http://www.w3.org/2000/svg" xmlns:xlink="http://www.w3.org/1999/xlink">
    <!-- Generator: Sketch 55.1 (78136) - https://sketchapp.com -->
    <title>girl</title>
    <desc>Created with Sketch.</desc>
    <g id="girl" stroke="none" stroke-width="1" fill="none" fill-rule="evenodd">
        <g id="iconmonstr-generation-4" fill="#C96D6F" fill-rule="nonzero">
            <path d="M32.03125,17.96875 C32.03125,19.2625 31.15625,20.3125 30.078125,20.3125 C29,20.3125 28.125,19.2625 28.125,17.96875 C28.125,16.675 29,15.625 30.078125,15.625 C31.15625,15.625 32.03125,16.675 32.03125,17.96875 Z M19.921875,15.625 C18.84375,15.625 17.96875,16.675 17.96875,17.96875 C17.96875,19.2625 18.84375,20.3125 19.921875,20.3125 C21,20.3125 21.875,19.2625 21.875,17.96875 C21.875,16.675 21,15.625 19.921875,15.625 Z M25,28.678125 C28.4921875,28.678125 29.6875,25 29.6875,25 L20.3125,25 C20.3125,25 21.6359375,28.678125 25,28.678125 Z M43.75,19.6109375 C43.75,22.61875 42.35,27.0140625 38.5671875,27.7171875 C35.50625,33.1734375 30.946875,35.9375 25,35.9375 C19.053125,35.9375 14.49375,33.1734375 11.4328125,27.71875 C7.65,27.0140625 6.25,22.6203125 6.25,19.6109375 C6.25,16.25625 7.5140625,13.215625 10.6921875,13.0125 C11.4,5.0453125 16.8578125,-3.55271368e-15 25,-3.55271368e-15 C33.1421875,-3.55271368e-15 38.6,5.0453125 39.3078125,13.0140625 C42.4890625,13.215625 43.75,16.253125 43.75,19.6109375 Z M39.6390625,16.3046875 C39.2140625,16.0265625 38.678125,16.1421875 38.4578125,16.240625 C37.425,16.6984375 36.2609375,15.9421875 36.2609375,14.8125 C36.2609375,12.7125 35.76875,6.9890625 30.8546875,4.415625 C32.8921875,6.53125 33.59375,10.340625 33.59375,12.5 L13.91875,12.5 C13.778125,13.4390625 13.7390625,14.25625 13.7390625,14.8125 C13.7390625,15.9421875 12.575,16.6984375 11.5421875,16.240625 C11.3203125,16.1421875 10.7859375,16.0265625 10.3609375,16.3046875 C8.6390625,17.4234375 9.1140625,24.6265625 12.45,24.690625 C13.0234375,24.7015625 13.546875,25.028125 13.809375,25.5390625 C17.5453125,32.8125 23.1546875,32.8125 25,32.8125 C26.8453125,32.8125 32.4546875,32.8125 36.190625,25.5390625 C36.453125,25.0265625 36.9765625,24.7015625 37.55,24.690625 C40.884375,24.625 41.3625,17.4234375 39.6390625,16.3046875 Z M38.671875,5.7609375 C44.6046875,4.053125 39.2578125,17.2390625 50,17.1875 C46.459375,14.8921875 48.6046875,8.63125 47.65625,4.428125 C46.846875,0.8453125 44.01875,-1.77635684e-15 42.1875,-1.77635684e-15 C39.2578125,-1.77635684e-15 37.334375,1.728125 36.5578125,3.003125 C37.4078125,3.75 38.1421875,4.915625 38.671875,5.7609375 L38.671875,5.7609375 Z M13.4421875,3.003125 C12.665625,1.728125 10.7421875,-1.77635684e-15 7.8125,-1.77635684e-15 C5.98125,-1.77635684e-15 3.153125,0.8453125 2.34375,4.428125 C1.3953125,8.63125 3.540625,14.8921875 1.77635684e-15,17.1875 C10.7421875,17.2390625 5.3953125,4.053125 11.328125,5.7609375 C11.8578125,4.915625 12.5921875,3.75 13.4421875,3.003125 L13.4421875,3.003125 Z" id="Shape"></path>
        </g>
    </g>
</svg>